# xmcd CD database file
#
# Track frame offsets:
#	150
#	20300
#	34038
#	56392
#	75602
#	97452
#	111840
#	135825
#	156858
#	193624
#
# Disc length: 2847 seconds
#
# Revision: 2
# Processed by: cddbd v1.5.2PL0 Copyright (c) Steve Scherf et al.
# Submitted via: CDex 1.50
#
DISCID=780b1d0a
DTITLE=Ivana Christova - Head and Shoulders
DYEAR=1998
DGENRE=Pop
TTITLE0=01.Moments Of Love
TTITLE1=02.I Can't Love You More
TTITLE2=03.My Love Forever
TTITLE3=04.Don't Walk Away
TTITLE4=05.Sweet Love
TTITLE5=06.So Alone
TTITLE6=07.Club Love Devine
TTITLE7=08.Danny's Lullaby
TTITLE8=09.My Fairy Tale
TTITLE9=10.Hlbocina
EXTD=YEAR: 1998
EXTT0=
EXTT1=
EXTT2=
EXTT3=
EXTT4=
EXTT5=
EXTT6=
EXTT7=
EXTT8=
EXTT9=
PLAYORDER=
